<svg xmlns="http://www.w3.org/2000/svg" xmlns:xlink="http://www.w3.org/1999/xlink" version="1.1" x="0px" y="0px" viewBox="0 0 100 125" enable-background="new 0 0 100 100" xml:space="preserve"><path d="M50,5C31.934,5,17.284,19.65,17.284,37.715c0,12.142,4.698,17.344,31.79,56.727c0.513,0.744,1.341,0.744,1.852,0  C78.02,55.059,82.717,49.857,82.717,37.715C82.717,19.65,68.066,5,50,5z M50,53.215c-8.558,0-15.5-6.939-15.5-15.5  c0-8.558,6.942-15.497,15.5-15.497c8.559,0,15.5,6.939,15.5,15.497C65.501,46.276,58.559,53.215,50,53.215z"/></svg>